<?xml version="1.0" encoding="utf-8"?>
<!-- Generator: Adobe Illustrator 30.1.0, SVG Export Plug-In . SVG Version: 9.03 Build 0)  -->
<svg version="1.0" xmlns="http://www.w3.org/2000/svg" xmlns:xlink="http://www.w3.org/1999/xlink" x="0px" y="0px"
	 viewBox="0 0 3000 2148.3" style="enable-background:new 0 0 3000 2148.3;" xml:space="preserve">
<style type="text/css">
	.st0{display:none;}
	.st1{display:inline;fill:#171D2C;}
	.st2{fill:#FFFFFF;}
	.st3{fill:#9AB5D9;}
</style>
<g id="Ebene_2" class="st0">
	<rect x="5.5" y="-13.3" class="st1" width="2997.3" height="2160"/>
</g>
<g id="MR">
	<g>
		<path class="st2" d="M265,1374.9h82.6c18.2,0,34.3,2.8,48.3,8.5c14,5.7,25,14.6,32.8,26.7c7.8,12.1,11.8,28.2,11.8,48.1
			c0,18.4-4.2,33.9-12.5,46.2c-8.3,12.4-19.5,21.7-33.4,27.9c-13.9,6.2-29.4,9.3-46.6,9.3h-42.1v109.2h-35.3v-250.9L265,1374.9z
			 M305.9,1401.1v114.8h41.3c17.4,0,31.2-5.3,41.3-15.9c10.1-10.6,15.2-24.5,15.2-41.7c0-17.9-4.8-32-14.4-42.1
			c-9.6-10.1-23.5-15.2-41.7-15.2H305.9z"/>
		<path class="st2" d="M542.8,1457.9c8.6,0,17.1,1.1,25.6,3.2c8.5,2.2,16.2,5.5,23.3,10l-11,24.3c-5.6-4.5-11.7-8-18.6-10.2
			c-6.8-2.3-13.5-3.4-20.1-3.4c-9.4,0-17.5,2.1-24.4,6.4c-7,4.3-10.4,10.7-10.4,19.3c0,6.1,1.5,11.1,4.4,15.2
			c2.9,4,6.8,7.5,11.6,10.2c4.8,2.8,10,5.6,15.5,8.3c6.3,3,12.7,6.1,19.1,9.3c6.4,3.2,12.4,7,17.8,11.4c5.4,4.4,9.9,9.7,13.3,15.9
			c3.4,6.2,5.1,13.8,5.1,22.9c0,12.6-3.1,23.1-9.3,31.3c-6.2,8.2-14.3,14.2-24.3,18c-10,3.8-20.8,5.7-32.4,5.7
			c-10.1,0-20.2-1.4-30.3-4.2c-10.1-2.8-19.5-6.7-28-11.8l13.3-23.1c6.1,4.5,12.9,8.2,20.5,11c7.6,2.8,14.9,4.2,22,4.2
			c9.6,0,18-2.3,25.2-6.8c7.2-4.5,10.8-11.4,10.8-20.5c0-6.3-2-11.6-5.9-15.7c-3.9-4.2-8.9-7.9-15-11.2c-6.1-3.3-12.4-6.4-19-9.5
			c-7.6-3.8-15-7.9-22.2-12.3c-7.2-4.4-13.1-10-17.6-16.9c-4.5-6.8-6.8-15.5-6.8-26.2c0-12.1,3.2-22.2,9.7-30.3
			c6.4-8.1,14.8-14.2,25.2-18.4C520.2,1460,531.2,1457.9,542.8,1457.9z"/>
		<path class="st2" d="M652,1462.5c5.6,15.7,11.1,31.3,16.5,47c5.4,15.7,10.9,31.7,16.5,48.1c2.8,8.6,5.6,17.2,8.5,26
			c2.9,8.7,5.7,17.4,8.5,26c2.8-8.8,5.6-17.6,8.5-26.2c2.9-8.6,5.7-17.2,8.5-25.8c5.6-16.4,11.1-32.5,16.5-48.1
			c5.4-15.7,10.9-31.3,16.5-47h29.6l-66.7,189.1c-2.8,7.8-6.3,16.5-10.6,26c-4.3,9.5-9.4,18.4-15.2,26.7
			c-5.8,8.3-12.6,15.2-20.5,20.7c-7.8,5.4-16.7,8.2-26.5,8.2h-14.4v-25.4c0.8,0,1.5,0,2.1,0c0.6,0,1.3,0,2.1,0
			c10.6,0,19.4-3.2,26.3-9.5c6.9-6.3,12.7-14,17.2-22.9c4.5-9,8.3-17.6,11.4-26l-69-186.9H652z"/>
		<path class="st2" d="M884.3,1457.9c9.6,0,19.3,1.6,29,4.7c9.7,3.2,19.3,8,28.6,14.6l-17.1,22c-7.1-5.8-14-10-20.8-12.7
			c-6.8-2.7-13.4-4-19.7-4c-7.6,0-14.6,1.8-21,5.3c-6.4,3.5-12.1,8.5-17.1,15c-4.9,6.4-8.7,14.2-11.4,23.3c-2.7,9.1-4,19.2-4,30.3
			c0,23.8,5.4,41.9,16.1,54.6c10.7,12.6,24.3,19,40.7,19c7.3,0,14.5-1.1,21.4-3.4c6.9-2.3,14.2-5.6,21.8-9.9l10.2,20.1
			c-10.1,6.3-19.8,11.1-29.2,14.2c-9.4,3.2-19.8,4.7-31.5,4.7c-16.2,0-30.5-4.1-43-12.3c-12.5-8.2-22.4-19.9-29.6-35.1
			c-7.2-15.2-10.8-33-10.8-53.4c0-19.7,4-36.8,11.9-51.4c8-14.5,18.6-25.8,31.8-33.7C854.2,1461.9,868.6,1457.9,884.3,1457.9z"/>
		<path class="st2" d="M1013.2,1362v122.8c8.1-7.6,16.8-14,26.2-19.3c9.3-5.3,19.7-8,31.1-8c13.9,0,25,2.9,33.4,8.7
			c8.3,5.8,14.4,13.7,18.2,23.7c3.8,10,5.7,21.5,5.7,34.7v126.2h-31.1v-116c0-7.8-0.6-15.5-1.7-22.9c-1.1-7.5-3.9-13.7-8.2-18.8
			c-4.3-5.1-11.5-7.6-21.6-7.6c-6.3,0-12.6,1.3-18.8,3.8c-6.2,2.5-12.1,5.7-17.6,9.5c-5.6,3.8-10.7,7.7-15.5,11.8v140.2h-31.1
			v-266.5l-4.9-22.4H1013.2z"/>
		<path class="st2" d="M1258.8,1655.8c-18.4,0-33.9-4.6-46.4-13.8c-12.5-9.2-21.9-21.3-28-36.2c-6.2-14.9-9.3-30.8-9.3-47.8
			c0-12.6,1.9-25,5.7-37c3.8-12,9.3-22.7,16.7-32.2c7.3-9.5,16.4-17,27.1-22.6c10.7-5.6,22.9-8.3,36.6-8.3
			c18.7,0,34.3,4.5,46.8,13.6c12.5,9.1,21.9,21.1,28,36c6.2,14.9,9.3,31,9.3,48.1c0,12.9-1.9,25.3-5.7,37.3
			c-3.8,12-9.3,22.7-16.5,32c-7.2,9.4-16.2,16.8-26.9,22.4C1285.4,1653,1273,1655.8,1258.8,1655.8z M1259.2,1631.9
			c9.9,0,18.1-2.3,24.8-7c6.7-4.7,12.1-10.8,16.3-18.4c4.2-7.6,7.1-15.7,8.9-24.4c1.8-8.7,2.7-17.1,2.7-25.2
			c0-8.3-0.8-16.9-2.5-25.6c-1.6-8.7-4.4-16.8-8.1-24.3c-3.8-7.5-9-13.5-15.7-18.2c-6.7-4.7-15-7-24.8-7c-9.9,0-18.1,2.3-24.8,7
			c-6.7,4.7-12.1,10.8-16.1,18.4c-4,7.6-7,15.7-8.7,24.5c-1.8,8.7-2.7,17.1-2.7,25.2c0,7.8,0.9,16.1,2.7,24.8
			c1.8,8.7,4.6,16.9,8.5,24.4c3.9,7.6,9.2,13.8,15.7,18.6C1241.9,1629.5,1249.8,1631.9,1259.2,1631.9z"/>
		<path class="st2" d="M1425.2,1362v288.8h-31.5V1384l-4.9-22H1425.2z"/>
		<path class="st2" d="M1557.5,1655.8c-18.5,0-33.9-4.6-46.4-13.8c-12.5-9.2-21.9-21.3-28-36.2c-6.2-14.9-9.3-30.8-9.3-47.8
			c0-12.6,1.9-25,5.7-37c3.8-12,9.3-22.7,16.7-32.2c7.3-9.5,16.4-17,27.1-22.6c10.7-5.6,22.9-8.3,36.6-8.3
			c18.7,0,34.3,4.5,46.8,13.6c12.5,9.1,21.9,21.1,28.1,36c6.2,14.9,9.3,31,9.3,48.1c0,12.9-1.9,25.3-5.7,37.3
			c-3.8,12-9.3,22.7-16.5,32c-7.2,9.4-16.2,16.8-26.9,22.4C1584.1,1653,1571.6,1655.8,1557.5,1655.8z M1557.9,1631.9
			c9.9,0,18.1-2.3,24.8-7c6.7-4.7,12.1-10.8,16.3-18.4c4.2-7.6,7.1-15.7,8.9-24.4c1.8-8.7,2.7-17.1,2.7-25.2
			c0-8.3-0.8-16.9-2.5-25.6c-1.6-8.7-4.4-16.8-8.2-24.3c-3.8-7.5-9-13.5-15.7-18.2c-6.7-4.7-15-7-24.8-7c-9.9,0-18.1,2.3-24.8,7
			c-6.7,4.7-12.1,10.8-16.1,18.4c-4,7.6-7,15.7-8.7,24.5c-1.8,8.7-2.7,17.1-2.7,25.2c0,7.8,0.9,16.1,2.7,24.8
			c1.8,8.7,4.6,16.9,8.5,24.4c3.9,7.6,9.2,13.8,15.7,18.6C1540.5,1629.5,1548.5,1631.9,1557.9,1631.9z"/>
		<path class="st2" d="M1744,1457.9c7.3,0,14.3,0.9,21,2.7c6.7,1.8,13.6,2.7,20.7,2.7c9.6,0,19.3-0.6,29.2-1.7
			c9.9-1.1,20.2-2.5,31.1-4l-6.8,27.3h-30.3c-1.8,0-3.6-0.1-5.5-0.2c-1.9-0.1-3.7-0.3-5.5-0.6c4.3,5.8,7.5,11.9,9.7,18.2
			c2.1,6.3,3.2,12.8,3.2,19.3c0,12.6-2.8,24-8.3,34.1c-5.6,10.1-13.7,18-24.4,23.7c-10.7,5.7-23.8,8.5-39.2,8.5
			c-6.3,0-11.9,1.6-16.7,4.9c-4.8,3.3-7.2,8.3-7.2,15.2c0,4.5,1.2,7.8,3.6,9.7c2.4,1.9,5.4,3,8.9,3.2c3.5,0.3,7.1,0.4,10.6,0.4h36.8
			c6.6,0,13.3,0.4,20.3,1.3c6.9,0.9,13.3,2.7,19.1,5.3c5.8,2.7,10.5,6.6,14.2,11.8c3.7,5.2,5.5,12.2,5.5,21
			c0,13.9-2.8,25.8-8.3,35.6c-5.6,9.9-13,17.9-22.4,24.1c-9.4,6.2-19.8,10.7-31.5,13.5c-11.6,2.8-23.4,4.2-35.3,4.2
			c-7.1,0-14.5-0.8-22.4-2.5c-7.8-1.6-15.2-4.3-22.2-8c-7-3.7-12.6-8.5-16.9-14.6c-4.3-6.1-6.4-13.6-6.4-22.7c0-9.6,3-18.1,8.9-25.4
			c5.9-7.3,12.8-13.5,20.7-18.6v-1.1c-5.6-2.8-9.9-6.6-13.1-11.6c-3.2-4.9-4.7-10.2-4.7-15.7c0-3.3,1.3-6.4,3.8-9.3
			c2.5-2.9,5.7-6.8,9.7-11.6c3.9-4.8,8.2-11.4,12.7-19.7c-8.8-6.1-15.9-13.8-21.2-23.3c-5.3-9.5-8-19.6-8-30.5
			c0-12.4,3-23.5,9.1-33.4c6.1-9.9,14.2-17.7,24.4-23.5C1721,1460.8,1732.1,1457.9,1744,1457.9z M1720.5,1651.2
			c-4.8,3.5-9.2,8.4-13.3,14.6c-4,6.2-6.1,12.2-6.1,18c0,6.1,2.2,11.2,6.6,15.5c4.4,4.3,9.9,7.5,16.3,9.7c6.4,2.1,12.4,3.2,18,3.2
			c6.6,0,13.5-0.7,20.8-2.1c7.3-1.4,14.1-3.6,20.5-6.6c6.3-3,11.4-7.2,15.4-12.5c3.9-5.3,5.9-11.8,5.9-19.3c0-6.6-2-11.3-6.1-14.2
			c-4-2.9-9-4.7-15-5.3c-5.9-0.6-11.8-0.9-17.6-0.9H1720.5z M1744.3,1480.7c-6.1,0-11.7,1.9-16.9,5.7c-5.2,3.8-9.4,8.9-12.5,15.2
			c-3.2,6.3-4.7,13.5-4.7,21.6c0,8.1,1.5,15.4,4.5,21.8c3,6.4,7.1,11.6,12.3,15.4c5.2,3.8,10.8,5.7,16.9,5.7
			c10.4,0,18.6-3.9,24.8-11.8c6.2-7.8,9.3-18.1,9.3-30.7c0-8.1-1.6-15.4-4.7-21.8c-3.2-6.4-7.3-11.6-12.3-15.4
			C1756,1482.6,1750.4,1480.7,1744.3,1480.7z"/>
		<path class="st2" d="M1911.5,1399.2c0,6.3-2.2,11.8-6.6,16.3c-4.4,4.5-9.9,6.8-16.5,6.8c-6.3,0-11.7-2.3-16.1-6.8
			c-4.4-4.5-6.6-10-6.6-16.3c0-6.3,2.2-11.8,6.6-16.3c4.4-4.5,9.8-6.8,16.1-6.8c6.3,0,11.8,2.3,16.3,6.8
			C1909.2,1387.4,1911.5,1392.9,1911.5,1399.2z M1904.7,1462.5v188.4h-31.5v-166l-4.5-22.4H1904.7z"/>
		<path class="st2" d="M2029,1457.9c8.6,0,17.1,1.1,25.6,3.2c8.5,2.2,16.2,5.5,23.3,10l-11,24.3c-5.6-4.5-11.8-8-18.6-10.2
			c-6.8-2.3-13.5-3.4-20.1-3.4c-9.4,0-17.5,2.1-24.4,6.4c-7,4.3-10.4,10.7-10.4,19.3c0,6.1,1.5,11.1,4.4,15.2
			c2.9,4,6.8,7.5,11.6,10.2c4.8,2.8,10,5.6,15.5,8.3c6.3,3,12.7,6.1,19.1,9.3c6.4,3.2,12.4,7,17.8,11.4c5.4,4.4,9.9,9.7,13.3,15.9
			c3.4,6.2,5.1,13.8,5.1,22.9c0,12.6-3.1,23.1-9.3,31.3c-6.2,8.2-14.3,14.2-24.3,18c-10,3.8-20.8,5.7-32.4,5.7
			c-10.1,0-20.2-1.4-30.3-4.2c-10.1-2.8-19.5-6.7-28-11.8l13.3-23.1c6.1,4.5,12.9,8.2,20.5,11c7.6,2.8,14.9,4.2,22,4.2
			c9.6,0,18-2.3,25.2-6.8c7.2-4.5,10.8-11.4,10.8-20.5c0-6.3-2-11.6-5.9-15.7c-3.9-4.2-8.9-7.9-15-11.2c-6.1-3.3-12.4-6.4-19-9.5
			c-7.6-3.8-15-7.9-22.2-12.3c-7.2-4.4-13.1-10-17.6-16.9c-4.5-6.8-6.8-15.5-6.8-26.2c0-12.1,3.2-22.2,9.7-30.3
			c6.4-8.1,14.8-14.2,25.2-18.4C2006.4,1460,2017.4,1457.9,2029,1457.9z"/>
		<path class="st2" d="M2203.3,1457.9c9.6,0,19.3,1.6,29,4.7c9.7,3.2,19.3,8,28.6,14.6l-17.1,22c-7.1-5.8-14-10-20.8-12.7
			c-6.8-2.7-13.4-4-19.7-4c-7.6,0-14.6,1.8-21,5.3c-6.4,3.5-12.1,8.5-17.1,15c-4.9,6.4-8.7,14.2-11.4,23.3c-2.7,9.1-4,19.2-4,30.3
			c0,23.8,5.4,41.9,16.1,54.6c10.7,12.6,24.3,19,40.7,19c7.3,0,14.5-1.1,21.4-3.4c6.9-2.3,14.2-5.6,21.8-9.9l10.2,20.1
			c-10.1,6.3-19.8,11.1-29.2,14.2c-9.4,3.2-19.8,4.7-31.5,4.7c-16.2,0-30.5-4.1-43-12.3c-12.5-8.2-22.4-19.9-29.6-35.1
			c-7.2-15.2-10.8-33-10.8-53.4c0-19.7,4-36.8,11.9-51.4c8-14.5,18.6-25.8,31.8-33.7C2173.2,1461.9,2187.7,1457.9,2203.3,1457.9z"/>
		<path class="st2" d="M2332.2,1362v122.8c8.1-7.6,16.8-14,26.2-19.3c9.3-5.3,19.7-8,31.1-8c13.9,0,25,2.9,33.4,8.7
			c8.3,5.8,14.4,13.7,18.2,23.7c3.8,10,5.7,21.5,5.7,34.7v126.2h-31.1v-116c0-7.8-0.6-15.5-1.7-22.9c-1.1-7.5-3.9-13.7-8.2-18.8
			c-4.3-5.1-11.5-7.6-21.6-7.6c-6.3,0-12.6,1.3-18.8,3.8c-6.2,2.5-12.1,5.7-17.6,9.5c-5.6,3.8-10.7,7.7-15.5,11.8v140.2h-31.1
			v-266.5l-4.9-22.4H2332.2z"/>
		<path class="st2" d="M2579.7,1457.9c15.2,0,27.9,3.1,38.3,9.3c10.4,6.2,18.1,14.8,23.3,25.8c5.2,11,7.8,23.8,7.8,38.5
			c0,3.5-0.2,7.1-0.6,10.8c-0.4,3.7-0.8,7.5-1.3,11.6h-119.8c0,24,5.3,42.6,15.9,55.7c10.6,13.1,24.8,19.7,42.5,19.7
			c7.3,0,15-1.1,22.9-3.4c8-2.3,16.2-5.7,24.8-10.2l11.8,19c-8.9,7.1-18.8,12.4-29.9,15.9c-11.1,3.5-22.4,5.3-33.7,5.3
			c-14.9,0-27.9-2.7-38.9-8.1c-11-5.4-20.1-12.8-27.3-22c-7.2-9.2-12.6-19.6-16.1-31.3c-3.5-11.6-5.3-23.5-5.3-35.6
			c0-12.6,1.8-24.9,5.3-36.8c3.5-11.9,8.9-22.7,16.1-32.4c7.2-9.7,16.1-17.4,26.7-23.1C2552.8,1460.8,2565.3,1457.9,2579.7,1457.9z
			 M2576.7,1481.8c-8.6,0-16.2,2.4-22.7,7.2c-6.6,4.8-11.9,10.9-15.9,18.4c-4,7.5-6.8,15.1-8.3,22.9h86.4
			c0.2-10.6-1.2-19.5-4.4-26.7c-3.2-7.2-7.7-12.6-13.6-16.3C2592.2,1483.6,2585,1481.8,2576.7,1481.8z"/>
	</g>
	<g>
		<path class="st3" d="M156.7,1881.9c0,8.3-1.6,16.4-4.9,24.1c-3.3,7.8-8,14.4-14.2,19.9c-6.2,5.5-13.7,9.1-22.5,10.6
			c11.3,1.6,20.8,5.5,28.5,11.6c7.8,6.2,13.7,13.9,17.9,23.1c4.2,9.2,6.2,19.4,6.2,30.4c0,14.6-2.7,26.5-8.1,35.6
			c-5.4,9.1-12.7,16.1-22,20.9c-9.2,4.8-19.6,8.1-31.1,9.8c-11.5,1.7-23.2,2.5-35.1,2.5H4.7v-223.6c0-0.2-0.4-2-1.2-5.4
			c-0.8-3.4-1.5-6.9-2.2-10.5c-0.7-3.6-1.1-5.7-1.4-6.4h82.1c9.7,0,19,0.8,27.9,2.5c8.9,1.7,16.9,4.7,24,9
			c7.1,4.3,12.7,10.1,16.7,17.4C154.7,1861,156.7,1870.4,156.7,1881.9z M123.9,1882.6c0-9-2-16-5.9-20.9c-3.9-4.9-9.2-8.4-15.7-10.5
			c-6.5-2-13.6-3-21.3-3H36.1v78.3h36.1c10.6,0,19.7-1.4,27.4-4.1c7.7-2.7,13.6-7.3,17.9-13.7
			C121.8,1902.3,123.9,1893.6,123.9,1882.6z M134.4,1996.7c0-11.5-3-20.7-8.9-27.5c-6-6.9-13.6-11.8-23-14.9c-9.3-3-19-4.6-28.9-4.6
			H36.1v97.6h37.5c11.9,0,22.5-1.4,31.6-4.2c9.1-2.8,16.3-7.9,21.4-15.4C131.8,2020.3,134.4,2010,134.4,1996.7z"/>
		<path class="st3" d="M274.5,1898.8c13.5,0,24.9,2.8,34.1,8.3c9.2,5.5,16.2,13.2,20.8,23c4.6,9.8,6.9,21.2,6.9,34.3
			c0,3.2-0.2,6.4-0.5,9.6c-0.3,3.3-0.7,6.7-1.2,10.3H227.9c0,21.4,4.7,37.9,14.2,49.6c9.5,11.7,22.1,17.6,37.8,17.6
			c6.5,0,13.3-1,20.4-3c7.1-2,14.5-5.1,22.1-9.1l10.5,16.9c-7.9,6.3-16.8,11-26.7,14.2c-9.9,3.1-19.9,4.7-30.1,4.7
			c-13.3,0-24.8-2.4-34.6-7.3c-9.8-4.8-17.9-11.4-24.3-19.6c-6.4-8.2-11.2-17.5-14.4-27.9c-3.2-10.4-4.7-20.9-4.7-31.7
			c0-11.3,1.6-22.2,4.7-32.8c3.1-10.6,7.9-20.2,14.4-28.9c6.4-8.7,14.4-15.5,23.8-20.6C250.6,1901.3,261.7,1898.8,274.5,1898.8z
			 M271.8,1920.1c-7.7,0-14.4,2.1-20.3,6.4c-5.9,4.3-10.6,9.7-14.2,16.4c-3.6,6.6-6.1,13.5-7.4,20.4h77c0.2-9.5-1.1-17.4-3.9-23.8
			c-2.8-6.4-6.9-11.3-12.2-14.5C285.6,1921.7,279.3,1920.1,271.8,1920.1z"/>
		<path class="st3" d="M397.1,1899.8c4.1,9.9,6.6,20.4,7.8,31.4c5.9-9.2,13.7-16.8,23.6-22.6c9.9-5.9,20.4-8.8,31.4-8.8l-6.8,29.7
			c-10.8,0-20,2.8-27.5,8.4c-7.5,5.6-14.2,12.7-20.1,21.3v111.4h-28v-121.6c0-4.5-0.3-9.6-1-15.2c-0.7-5.6-1.8-11.1-3.4-16.5
			c-1.6-5.4-3.7-10-6.4-13.8L397.1,1899.8z"/>
		<path class="st3" d="M548.4,1898.8c17.8,0,31.2,4.8,40.2,14.5c9,9.7,13.5,23.3,13.5,40.9v84.1c0,4.7,0.9,7.9,2.7,9.6
			c1.8,1.7,3.9,2.5,6.4,2.5c2,0,4.2-0.3,6.4-0.8c2.2-0.6,4.4-1.3,6.4-2.2l6.1,18.2c-3.6,2-8.2,3.9-13.7,5.6
			c-5.5,1.7-11.2,2.5-17.1,2.5c-5.9,0-11.1-1.6-15.9-4.9c-4.7-3.3-7.7-9.3-8.8-18.1c-6.5,7-14.2,12.7-23,17.1
			c-8.8,4.4-18,6.6-27.7,6.6c-13.3,0-24.3-3.9-33.1-11.8c-8.8-7.9-13.2-18.7-13.2-32.4c0-12.8,3.1-23.1,9.3-30.7
			c6.2-7.7,14.2-13.4,24.1-17.2c9.9-3.8,20.4-6.4,31.6-7.8c11.1-1.4,21.6-2,31.2-2v-17.9c0-6.3-0.8-12-2.4-17.1
			c-1.6-5.1-4.4-9.1-8.4-12.2c-4.1-3-9.8-4.6-17.2-4.6c-8.6,0-16.8,1.7-24.7,5.1c-7.9,3.4-15.8,8.3-23.6,14.9l-13.8-19.9
			c9.2-7.4,19.4-12.9,30.4-16.5C525.3,1900.6,536.7,1898.8,548.4,1898.8z M574.1,1994.3c-6.1,0-12.9,0.3-20.6,0.8
			c-7.7,0.6-15.1,1.9-22.3,4.1c-7.2,2.1-13.1,5.6-17.7,10.3c-4.6,4.7-6.9,11.3-6.9,19.6c0,7.4,2.5,12.9,7.6,16.4
			c5.1,3.5,11.4,5.2,19.1,5.2c8.1,0,15.2-2.2,21.3-6.8c6.1-4.5,10.9-10.2,14.4-17.2c3.5-7,5.2-14.2,5.2-21.6V1994.3z"/>
		<path class="st3" d="M696.3,1854.9c-1.6,7.7-3,15.6-4.2,23.8c-1.2,8.2-2.1,16.3-2.5,24.1h43.9l-5.7,21.3h-38.2v107.4
			c0,4.3,0.5,8.1,1.5,11.3c1,3.3,2.8,5.7,5.4,7.4c2.6,1.7,6.2,2.5,11,2.5c3.6,0,7.2-0.3,10.8-1c3.6-0.7,7.1-1.5,10.5-2.4l4.7,18.9
			c-5.6,1.6-11,3-16,4.2c-5.1,1.2-10.9,1.9-17.4,1.9c-14.4,0-24.4-3.8-30.1-11.5c-5.6-7.7-8.4-18.3-8.4-32.1v-106.7h-25v-16.9
			c6.8-0.2,12.4-2,16.9-5.4c4.5-3.4,8.2-7.7,11.1-13c2.9-5.3,5.3-10.9,7.1-16.9c1.8-6,3.1-11.6,4.1-17.1H696.3z"/>
		<path class="st3" d="M795.3,1902.8v103.3c0,6.5,0.6,13.2,1.7,20.1c1.1,6.9,3.7,12.6,7.6,17.1c3.9,4.5,10.2,6.8,18.7,6.8
			c8.3,0,15.9-1.8,22.8-5.4c6.9-3.6,12.4-8.6,16.7-15c4.3-6.4,6.4-13.9,6.4-22.5v-84.4c0-0.2-0.3-1.9-1-4.9c-0.7-3-1.4-6.2-2-9.5
			c-0.7-3.3-1.1-5.1-1.4-5.6h32.4v135.1c0,4.3,0.7,7.4,2.2,9.5c1.5,2,3.8,3,6.9,3c3.2,0,7.4-1,12.8-3l6.1,18.2
			c-4.5,2.5-9.5,4.4-15,5.9c-5.5,1.5-10.8,2.2-15.7,2.2c-5.9,0-11-1.7-15.5-5.1c-4.5-3.4-7.4-9.3-8.8-17.9
			c-6.5,6.8-14.4,12.5-23.5,17.2c-9.1,4.7-18.5,7.1-28.2,7.1c-12.4,0-22.3-2.6-29.9-7.8c-7.5-5.2-13-12.2-16.4-21.1
			c-3.4-8.9-5.1-19.2-5.1-30.9v-92.5l-4.4-19.9H795.3z"/>
		<path class="st3" d="M973.5,1900.1c1.6,3.8,2.9,7.8,4.1,11.8c1.1,4.1,1.9,8.1,2.4,12.2c6.8-6.8,14.7-12.7,24-17.7
			c9.2-5.1,18.7-7.6,28.4-7.6c12.4,0,22.3,2.6,29.9,7.8c7.5,5.2,13,12.2,16.4,21.1c3.4,8.9,5.1,19.2,5.1,30.9v112.1h-27.7v-103
			c0-7-0.5-13.8-1.5-20.6c-1-6.8-3.5-12.3-7.4-16.7c-3.9-4.4-10.4-6.6-19.4-6.6c-5.4,0-10.9,1.1-16.5,3.2
			c-5.6,2.1-10.9,4.9-15.9,8.3c-5,3.4-9.5,7-13.5,10.8v124.6H954v-118.9c0-4.5-0.3-9.7-1-15.7c-0.7-6-1.8-11.8-3.4-17.6
			c-1.6-5.7-3.8-10.5-6.8-14.4L973.5,1900.1z"/>
		<path class="st3" d="M1186,1898.8c6.5,0,12.8,0.8,18.7,2.4c6,1.6,12.1,2.4,18.4,2.4c8.6,0,17.2-0.5,26-1.5c8.8-1,18-2.2,27.7-3.5
			l-6.1,24.3h-27c-1.6,0-3.2-0.1-4.9-0.2c-1.7-0.1-3.3-0.3-4.9-0.5c3.8,5.2,6.7,10.6,8.6,16.2c1.9,5.6,2.9,11.4,2.9,17.2
			c0,11.3-2.5,21.4-7.4,30.4c-5,9-12.2,16-21.8,21.1c-9.6,5.1-21.2,7.6-35,7.6c-5.6,0-10.6,1.5-14.9,4.4c-4.3,2.9-6.4,7.4-6.4,13.5
			c0,4.1,1.1,6.9,3.2,8.6c2.1,1.7,4.8,2.6,7.9,2.9c3.1,0.2,6.3,0.3,9.5,0.3h32.8c5.9,0,11.9,0.4,18.1,1.2c6.2,0.8,11.9,2.4,17.1,4.7
			c5.2,2.4,9.4,5.9,12.7,10.5c3.3,4.6,4.9,10.9,4.9,18.7c0,12.4-2.5,23-7.4,31.7c-5,8.8-11.6,15.9-19.9,21.4
			c-8.3,5.5-17.7,9.5-28,12c-10.4,2.5-20.8,3.7-31.4,3.7c-6.3,0-12.9-0.7-19.9-2.2c-7-1.5-13.6-3.8-19.8-7.1
			c-6.2-3.3-11.2-7.6-15-13c-3.8-5.4-5.7-12.2-5.7-20.3c0-8.6,2.6-16.1,7.9-22.6c5.3-6.5,11.4-12,18.4-16.5v-1
			c-5-2.5-8.8-5.9-11.7-10.3c-2.8-4.4-4.2-9.1-4.2-14c0-2.9,1.1-5.7,3.4-8.3c2.2-2.6,5.1-6,8.6-10.3c3.5-4.3,7.3-10.1,11.3-17.6
			c-7.9-5.4-14.2-12.3-18.9-20.8c-4.7-8.4-7.1-17.5-7.1-27.2c0-11,2.7-20.9,8.1-29.7c5.4-8.8,12.7-15.8,21.8-20.9
			C1165.5,1901.4,1175.4,1898.8,1186,1898.8z M1165,2071c-4.3,3.1-8.2,7.5-11.8,13c-3.6,5.5-5.4,10.9-5.4,16c0,5.4,2,10,5.9,13.8
			c3.9,3.8,8.8,6.7,14.5,8.6c5.7,1.9,11.1,2.9,16,2.9c5.9,0,12-0.6,18.6-1.9c6.5-1.2,12.6-3.2,18.2-5.9c5.6-2.7,10.2-6.4,13.7-11.1
			c3.5-4.7,5.2-10.5,5.2-17.2c0-5.9-1.8-10.1-5.4-12.7c-3.6-2.6-8.1-4.2-13.3-4.7c-5.3-0.6-10.5-0.8-15.7-0.8H1165z M1186.3,1919
			c-5.4,0-10.4,1.7-15,5.1c-4.6,3.4-8.3,7.9-11.1,13.5c-2.8,5.6-4.2,12-4.2,19.2c0,7.2,1.4,13.7,4.1,19.4c2.7,5.7,6.4,10.3,11,13.7
			c4.6,3.4,9.6,5.1,15,5.1c9.2,0,16.6-3.5,22.1-10.5c5.5-7,8.3-16.1,8.3-27.4c0-7.2-1.4-13.7-4.2-19.4c-2.8-5.7-6.5-10.3-11-13.7
			C1196.6,1920.7,1191.7,1919,1186.3,1919z"/>
		<path class="st3" d="M1551.3,1960.2c-10.6,37.8-25.9,66.2-45.9,85.1c-20,18.9-44.8,28.4-74.3,28.4c-15.8,0-28.9-3.1-39.5-9.3
			c-10.6-6.2-18.5-14.3-23.8-24.3c-5.3-10-7.9-20.7-7.9-31.9c0-16,5-30.9,15-44.7c10-13.8,25.6-24.9,46.8-33.3l8.8,20.6
			c-12.4,4.1-22,10.5-28.7,19.2c-6.8,8.8-10.1,19.8-10.1,33.1c0,8.1,1.7,15.9,5.1,23.5c3.4,7.5,8.4,13.7,15,18.4
			c6.6,4.7,15,7.1,25.2,7.1c12.8,0,25.2-3.5,37.1-10.6c11.9-7.1,22.5-17.8,31.6-32.1c9.1-14.3,15.5-32.3,19.1-53.9L1551.3,1960.2z
			 M1578.7,2071.3c-4.1,0.7-8,1.2-11.8,1.5c-3.8,0.3-7.7,0.5-11.5,0.5c-15.5,0-29.7-1.9-42.6-5.7c-12.8-3.8-24.4-9.5-34.8-16.9
			c-14.9-11-28.4-24.9-40.7-41.5c-12.3-16.7-22-34.9-29.2-54.9c-7.2-19.9-10.8-39.9-10.8-59.9c0-10.1,1.1-19.6,3.4-28.4
			c2.2-8.8,5.7-16.5,10.3-23.1c4.6-6.6,10.5-11.9,17.6-15.7c7.1-3.8,15.5-5.7,25.2-5.7c14,0,24.9,4,32.8,12
			c7.9,8,11.8,18.7,11.8,32.2c0,9.7-2.3,19.8-6.9,30.2c-4.6,10.5-11.9,20.4-21.8,29.9c-9.9,9.5-22.6,17.6-38.2,24.3l-7.1-20.3
			c10.6-4.3,19.1-10,25.5-17.1c6.4-7.1,11.1-14.6,14-22.6c2.9-8,4.4-15.5,4.4-22.5c0-7.9-1.3-14-3.9-18.2c-2.6-4.3-6.8-6.4-12.7-6.4
			c-7.7,0-13.5,3.9-17.4,11.6c-3.9,7.8-5.9,19.3-5.9,34.6c0,19.4,3.3,38.2,10,56.6c6.6,18.3,15.5,34.9,26.7,49.8
			c11.1,14.9,23.4,26.8,36.6,35.8c8.8,5.9,17.8,10.2,27,13.2c9.2,2.9,18.6,4.4,28,4.4c3.1,0,6.2-0.2,9.3-0.5c3-0.3,6-0.7,8.9-1.2
			L1578.7,2071.3z"/>
		<path class="st3" d="M1745.8,1821.4c11.3,0,22.2,1.6,32.9,4.7c10.7,3.2,20.9,7.7,30.6,13.5l-15.5,22.6c-7-5.2-14.6-9.3-22.8-12.3
			c-8.2-3-16.7-4.6-25.5-4.6c-11.9,0-22.1,3-30.4,9c-8.3,6-12.5,15.5-12.5,28.5c0,7.2,2,13.3,5.9,18.4c3.9,5.1,9.2,9.5,15.7,13.3
			c6.5,3.8,13.6,7.5,21.3,11.1c7.9,3.6,15.9,7.5,24.1,11.8c8.2,4.3,15.8,9.3,22.6,15c6.9,5.7,12.4,12.7,16.5,20.9
			c4.2,8.2,6.2,18.3,6.2,30.2c0,16.2-3.9,29.5-11.8,40c-7.9,10.5-18.2,18.2-31.1,23.3c-12.8,5.1-26.7,7.6-41.5,7.6
			c-12.2,0-23.9-1.6-35.3-4.9c-11.4-3.3-22.5-7.7-33.3-13.3l12.2-27.7c7.4,6.3,16.4,11.5,27,15.5c10.6,4.1,20.7,6.1,30.4,6.1
			c7.4,0,15-1.4,22.6-4.2c7.7-2.8,14.1-7.4,19.2-13.7c5.2-6.3,7.8-14.4,7.8-24.3c0-9.9-2.4-18.1-7.1-24.5
			c-4.7-6.4-10.9-11.8-18.6-16.2c-7.7-4.4-15.8-8.6-24.3-12.7c-7.4-3.6-14.9-7.3-22.3-11.1c-7.4-3.8-14.2-8.3-20.3-13.5
			s-10.9-11.4-14.5-18.6c-3.6-7.2-5.4-15.9-5.4-26c0-14.2,3.8-26,11.3-35.5c7.5-9.5,17.2-16.6,29-21.4
			C1721,1823.9,1733.2,1821.4,1745.8,1821.4z"/>
		<path class="st3" d="M1916.7,1898.8c13.5,0,24.9,2.8,34.1,8.3c9.2,5.5,16.1,13.2,20.8,23c4.6,9.8,6.9,21.2,6.9,34.3
			c0,3.2-0.2,6.4-0.5,9.6c-0.3,3.3-0.7,6.7-1.2,10.3h-106.7c0,21.4,4.7,37.9,14.2,49.6c9.5,11.7,22.1,17.6,37.8,17.6
			c6.5,0,13.3-1,20.4-3c7.1-2,14.5-5.1,22.1-9.1l10.5,16.9c-7.9,6.3-16.8,11-26.7,14.2c-9.9,3.1-19.9,4.7-30.1,4.7
			c-13.3,0-24.8-2.4-34.6-7.3s-17.9-11.4-24.3-19.6c-6.4-8.2-11.2-17.5-14.4-27.9c-3.2-10.4-4.7-20.9-4.7-31.7
			c0-11.3,1.6-22.2,4.7-32.8c3.2-10.6,7.9-20.2,14.4-28.9c6.4-8.7,14.4-15.5,23.8-20.6C1892.7,1901.3,1903.9,1898.8,1916.7,1898.8z
			 M1914,1920.1c-7.7,0-14.4,2.1-20.3,6.4c-5.9,4.3-10.6,9.7-14.2,16.4c-3.6,6.6-6.1,13.5-7.4,20.4h77c0.2-9.5-1.1-17.4-3.9-23.8
			c-2.8-6.4-6.9-11.3-12.2-14.5C1927.8,1921.7,1921.4,1920.1,1914,1920.1z"/>
		<path class="st3" d="M2083.5,1898.8c13.5,0,24.9,2.8,34.1,8.3c9.2,5.5,16.1,13.2,20.8,23c4.6,9.8,6.9,21.2,6.9,34.3
			c0,3.2-0.2,6.4-0.5,9.6c-0.3,3.3-0.7,6.7-1.2,10.3h-106.7c0,21.4,4.7,37.9,14.2,49.6c9.5,11.7,22.1,17.6,37.8,17.6
			c6.5,0,13.3-1,20.4-3c7.1-2,14.5-5.1,22.1-9.1l10.5,16.9c-7.9,6.3-16.8,11-26.7,14.2c-9.9,3.1-19.9,4.7-30.1,4.7
			c-13.3,0-24.8-2.4-34.6-7.3c-9.8-4.8-17.9-11.4-24.3-19.6c-6.4-8.2-11.2-17.5-14.4-27.9c-3.2-10.4-4.7-20.9-4.7-31.7
			c0-11.3,1.6-22.2,4.7-32.8c3.2-10.6,7.9-20.2,14.4-28.9c6.4-8.7,14.4-15.5,23.8-20.6C2059.5,1901.3,2070.7,1898.8,2083.5,1898.8z
			 M2080.8,1920.1c-7.7,0-14.4,2.1-20.3,6.4c-5.9,4.3-10.6,9.7-14.2,16.4c-3.6,6.6-6.1,13.5-7.4,20.4h77c0.2-9.5-1.1-17.4-3.9-23.8
			c-2.8-6.4-6.9-11.3-12.2-14.5C2094.6,1921.7,2088.2,1920.1,2080.8,1920.1z"/>
		<path class="st3" d="M2215.6,1813.3v257.3h-28v-237.7l-4.4-19.6H2215.6z"/>
		<path class="st3" d="M2326.3,1898.8c7.6,0,15.2,1,22.8,2.9c7.5,1.9,14.5,4.9,20.8,8.9l-9.8,21.6c-5-4.1-10.5-7.1-16.5-9.1
			c-6.1-2-12-3-17.9-3c-8.3,0-15.6,1.9-21.8,5.7c-6.2,3.8-9.3,9.6-9.3,17.2c0,5.4,1.3,9.9,3.9,13.5c2.6,3.6,6,6.6,10.3,9.1
			c4.3,2.5,8.9,5,13.8,7.4c5.6,2.7,11.3,5.5,17.1,8.3c5.7,2.8,11,6.2,15.9,10.1c4.8,3.9,8.8,8.7,11.8,14.2c3,5.5,4.6,12.3,4.6,20.4
			c0,11.3-2.8,20.5-8.3,27.9c-5.5,7.3-12.7,12.7-21.6,16c-8.9,3.4-18.5,5.1-28.9,5.1c-9,0-18-1.2-27-3.7c-9-2.5-17.3-6-25-10.5
			l11.8-20.6c5.4,4.1,11.5,7.3,18.2,9.8c6.8,2.5,13.3,3.7,19.6,3.7c8.6,0,16-2,22.5-6.1c6.4-4.1,9.6-10.1,9.6-18.2
			c0-5.6-1.7-10.3-5.2-14c-3.5-3.7-7.9-7-13.3-10c-5.4-2.9-11-5.7-16.9-8.4c-6.8-3.4-13.3-7-19.8-11c-6.4-3.9-11.7-9-15.7-15
			s-6.1-13.8-6.1-23.3c0-10.8,2.9-19.8,8.6-27c5.7-7.2,13.2-12.7,22.5-16.4C2306.2,1900.6,2316,1898.8,2326.3,1898.8z"/>
		<path class="st3" d="M2478.6,2075.1c-16.4,0-30.2-4.1-41.4-12.3c-11.1-8.2-19.5-19-25-32.3c-5.5-13.3-8.3-27.5-8.3-42.5
			c0-11.3,1.7-22.2,5.1-32.9c3.4-10.7,8.3-20.3,14.9-28.7c6.5-8.4,14.6-15.1,24.1-20.1c9.6-5,20.4-7.4,32.6-7.4
			c16.7,0,30.6,4.1,41.7,12.2c11.1,8.1,19.5,18.8,25,32.1c5.5,13.3,8.3,27.6,8.3,42.9c0,11.5-1.7,22.6-5.1,33.3
			c-3.4,10.7-8.3,20.2-14.7,28.5c-6.4,8.3-14.4,15-24,19.9C2502.3,2072.6,2491.2,2075.1,2478.6,2075.1z M2479,2053.8
			c8.8,0,16.1-2.1,22.1-6.2c6-4.2,10.8-9.6,14.5-16.4c3.7-6.8,6.4-14,7.9-21.8c1.6-7.8,2.4-15.2,2.4-22.5c0-7.4-0.7-15-2.2-22.8
			c-1.5-7.8-3.9-15-7.3-21.6c-3.4-6.6-8.1-12-14-16.2c-6-4.2-13.3-6.2-22.1-6.2s-16.2,2.1-22.1,6.2c-6,4.2-10.8,9.6-14.4,16.4
			c-3.6,6.8-6.2,14-7.8,21.8c-1.6,7.8-2.4,15.3-2.4,22.5c0,7,0.8,14.4,2.4,22.1c1.6,7.8,4.1,15,7.6,21.8c3.5,6.8,8.2,12.3,14,16.5
			C2463.5,2051.6,2470.6,2053.8,2479,2053.8z"/>
		<path class="st3" d="M2615,1899.8c4.1,9.9,6.6,20.4,7.8,31.4c5.9-9.2,13.7-16.8,23.6-22.6c9.9-5.9,20.4-8.8,31.4-8.8l-6.8,29.7
			c-10.8,0-20,2.8-27.5,8.4c-7.5,5.6-14.2,12.7-20.1,21.3v111.4h-28v-121.6c0-4.5-0.3-9.6-1-15.2c-0.7-5.6-1.8-11.1-3.4-16.5
			c-1.6-5.4-3.7-10-6.4-13.8L2615,1899.8z"/>
		<path class="st3" d="M2760.2,1898.8c6.5,0,12.8,0.8,18.7,2.4c6,1.6,12.1,2.4,18.4,2.4c8.6,0,17.2-0.5,26-1.5
			c8.8-1,18-2.2,27.7-3.5l-6.1,24.3h-27c-1.6,0-3.2-0.1-4.9-0.2c-1.7-0.1-3.3-0.3-4.9-0.5c3.8,5.2,6.7,10.6,8.6,16.2
			c1.9,5.6,2.9,11.4,2.9,17.2c0,11.3-2.5,21.4-7.4,30.4c-5,9-12.2,16-21.8,21.1c-9.6,5.1-21.2,7.6-34.9,7.6
			c-5.6,0-10.6,1.5-14.9,4.4c-4.3,2.9-6.4,7.4-6.4,13.5c0,4.1,1.1,6.9,3.2,8.6c2.1,1.7,4.8,2.6,7.9,2.9c3.1,0.2,6.3,0.3,9.5,0.3
			h32.8c5.9,0,11.9,0.4,18.1,1.2c6.2,0.8,11.9,2.4,17.1,4.7c5.2,2.4,9.4,5.9,12.7,10.5c3.3,4.6,4.9,10.9,4.9,18.7
			c0,12.4-2.5,23-7.4,31.7c-5,8.8-11.6,15.9-19.9,21.4c-8.3,5.5-17.7,9.5-28,12c-10.4,2.5-20.8,3.7-31.4,3.7
			c-6.3,0-12.9-0.7-19.9-2.2c-7-1.5-13.6-3.8-19.8-7.1c-6.2-3.3-11.2-7.6-15-13c-3.8-5.4-5.7-12.2-5.7-20.3c0-8.6,2.6-16.1,7.9-22.6
			c5.3-6.5,11.4-12,18.4-16.5v-1c-5-2.5-8.8-5.9-11.6-10.3c-2.8-4.4-4.2-9.1-4.2-14c0-2.9,1.1-5.7,3.4-8.3c2.2-2.6,5.1-6,8.6-10.3
			c3.5-4.3,7.3-10.1,11.3-17.6c-7.9-5.4-14.2-12.3-18.9-20.8c-4.7-8.4-7.1-17.5-7.1-27.2c0-11,2.7-20.9,8.1-29.7
			c5.4-8.8,12.7-15.8,21.8-20.9C2739.8,1901.4,2749.7,1898.8,2760.2,1898.8z M2739.3,2071c-4.3,3.1-8.2,7.5-11.8,13
			c-3.6,5.5-5.4,10.9-5.4,16c0,5.4,2,10,5.9,13.8c3.9,3.8,8.8,6.7,14.5,8.6c5.7,1.9,11.1,2.9,16,2.9c5.9,0,12-0.6,18.6-1.9
			c6.5-1.2,12.6-3.2,18.2-5.9c5.6-2.7,10.2-6.4,13.7-11.1c3.5-4.7,5.2-10.5,5.2-17.2c0-5.9-1.8-10.1-5.4-12.7
			c-3.6-2.6-8.1-4.2-13.3-4.7c-5.3-0.6-10.5-0.8-15.7-0.8H2739.3z M2760.6,1919c-5.4,0-10.4,1.7-15,5.1c-4.6,3.4-8.3,7.9-11.1,13.5
			c-2.8,5.6-4.2,12-4.2,19.2c0,7.2,1.4,13.7,4.1,19.4c2.7,5.7,6.4,10.3,11,13.7c4.6,3.4,9.6,5.1,15,5.1c9.2,0,16.6-3.5,22.1-10.5
			c5.5-7,8.3-16.1,8.3-27.4c0-7.2-1.4-13.7-4.2-19.4c-2.8-5.7-6.5-10.3-11-13.7C2770.9,1920.7,2766,1919,2760.6,1919z"/>
		<path class="st3" d="M2938.2,1898.8c13.5,0,24.9,2.8,34.1,8.3c9.2,5.5,16.1,13.2,20.8,23c4.6,9.8,6.9,21.2,6.9,34.3
			c0,3.2-0.2,6.4-0.5,9.6c-0.3,3.3-0.7,6.7-1.2,10.3h-106.7c0,21.4,4.7,37.9,14.2,49.6c9.5,11.7,22.1,17.6,37.8,17.6
			c6.5,0,13.3-1,20.4-3c7.1-2,14.5-5.1,22.1-9.1l10.5,16.9c-7.9,6.3-16.8,11-26.7,14.2c-9.9,3.1-19.9,4.7-30.1,4.7
			c-13.3,0-24.8-2.4-34.6-7.3c-9.8-4.8-17.9-11.4-24.3-19.6c-6.4-8.2-11.2-17.5-14.4-27.9c-3.2-10.4-4.7-20.9-4.7-31.7
			c0-11.3,1.6-22.2,4.7-32.8c3.2-10.6,7.9-20.2,14.4-28.9c6.4-8.7,14.4-15.5,23.8-20.6C2914.2,1901.3,2925.4,1898.8,2938.2,1898.8z
			 M2935.5,1920.1c-7.7,0-14.4,2.1-20.3,6.4c-5.9,4.3-10.6,9.7-14.2,16.4c-3.6,6.6-6.1,13.5-7.4,20.4h77c0.2-9.5-1.1-17.4-3.9-23.8
			c-2.8-6.4-6.9-11.3-12.2-14.5C2949.3,1921.7,2942.9,1920.1,2935.5,1920.1z"/>
	</g>
	<g>
		<path class="st3" d="M2817.2,1089.1c-167.5,130.6-478.2,123.4-674.9,100.8c-128.8-14.8-247.9-39.7-374.6-64.4
			c-166.7-32.5-326.7-61.5-496.8-76.6c-206.3-18.4-406.9-19.8-612.8-7.5c-155.5,9.3-301.4,35.1-456.6,58.3
			c162.1-51.2,326.5-79.2,498-100.2c268.4-32.9,534.3-33.8,802.7-2.8c186.6,21.6,362.9,57.3,545.5,98.1
			C2312.3,1153.7,2566,1189.4,2817.2,1089.1z"/>
		<path class="st3" d="M1977.1,490.1c28.5,63.7,74.7,117.6,116.5,177.2c62,88.3,133.6,164.3,213.5,236.2
			c132.7,119.3,310,158.1,479,96.9c-55.3,40.7-116.4,70.8-185.8,81.4c-175.8,27-348.5-18.7-483.8-133
			c-135.2-114.1-252-281.2-336-432C1846.3,515,1912.3,500.8,1977.1,490.1z"/>
		<path class="st3" d="M1518.9,527v374.4L1384,889.6V569.4C1392.1,566.3,1483.5,530.7,1518.9,527z"/>
		<path class="st2" d="M1518.9,0v478c-46.3,7.8-90.5,28.5-134.9,53.2V202.3l-309.9,649.4L754.6,221v642.5h-89.9V0h137.6l304.8,613.4
			L1393.7,0H1518.9z"/>
		<path class="st2" d="M2246.5,233.1c-5.1-166.9-190-232-333.1-233.1h-299.6v46.8h190.1c123.8,0.9,269,45.9,276.4,195.3
			c4.3,86.4-35.9,159.8-116.2,196.6c-66.6,30.5-141.3,36.1-215.8,40.9l-161.2,10c-90.3,4.3-203,79.9-203,79.9s77.4-30.6,142.2-41.9
			c84.1-14.7,169.2-8.3,254.3-10.7c65.8-1.9,131.8-16,196.6-26.8c54.1-8.9,108.8-30.9,157.1-58
			C2209.6,389.7,2249.1,316.5,2246.5,233.1z"/>
	</g>
</g>
</svg>
